<mxfile host="app.diagrams.net" modified="2023-11-01T08:36:26.797Z" agent="Mozilla/5.0 (Windows NT 10.0; Win64; x64) AppleWebKit/537.36 (KHTML, like Gecko) Chrome/118.0.0.0 Safari/537.36" version="22.0.8" etag="OglOM-D9vQnOUqYtSerR" type="github">
  <diagram name="페이지-1" id="31EgaM5gPdeL9ONdDeEs">
    <mxGraphModel>
      <root>
        <mxCell id="0" />
        <mxCell id="1" parent="0" />
      </root>
    </mxGraphModel>
  </diagram>
</mxfile>
